<?xml version="1.0" encoding="UTF-8"?><svg id="Layer_1" xmlns="http://www.w3.org/2000/svg" viewBox="0 0 478 112.4"><defs><style>.cls-1{fill:#fff;}</style></defs><path d="M168.86,23.14c3.78-6.84,11.31-11.47,19.15-11.54,18.08.02,36.15-.02,54.23.02-4.12,7.02-8.17,14.08-12.27,21.11-14.07.01-28.14-.02-42.2.02-2.92,5.09-5.87,10.17-8.81,15.24,14.06.04,28.12,0,42.17.02-4.06,7.08-8.17,14.13-12.22,21.22-14.07,0-28.13,0-42.2,0-6.22,10.75-12.44,21.5-18.69,32.24-8.16-.02-16.32,0-24.49-.01,15.09-26.12,30.21-52.22,45.32-78.32Z"/><path d="M247.13,18.26c4.21-4.38,10.31-6.88,16.39-6.66,17.78,0,35.56,0,53.34,0-7.33,12.66-14.65,25.33-21.99,37.98-8.16-.03-16.32,0-24.48-.02,3.18-5.65,6.48-11.22,9.71-16.84-5.9,0-11.8,0-17.7,0-9.13,15.89-18.33,31.73-27.48,47.61,5.89.02,11.77,0,17.66.01,2.95-5.14,5.94-10.26,8.9-15.39,8.18,0,16.36,0,24.54,0-7.11,12.14-14.07,24.37-21.18,36.51-17.89-.04-35.77.04-53.66-.04-5.39-.33-8.89-6.88-6.28-11.58,12.17-21.12,24.42-42.2,36.61-63.31,1.69-2.88,3.18-5.95,5.62-8.29Z"/><path d="M329.26,22.58c3.99-6.56,11.43-10.85,19.12-10.98,13.52,0,27.04,0,40.56,0,4.06-.02,7.63,3.69,7.57,7.72.09,1.52-.33,3.03-1.11,4.33-9.1,15.68-18.16,31.38-27.3,47.05-13.83-.01-27.66-.04-41.49,0-1.85,3.26-3.75,6.49-5.62,9.74,13.82.04,27.64,0,41.46.01-3.99,6.99-8.05,13.93-12.07,20.89-.63.21-1.31.09-1.95.12-21.59-.02-43.19,0-64.78-.02,6.85-11.84,13.81-23.61,20.7-35.43,1.46-2.4,2.73-4.94,4.54-7.11,4.56-5.59,11.6-9.12,18.83-9.34,9.41,0,18.82.01,28.23-.01,3.26-5.69,6.57-11.35,9.83-17.05-5.7-.02-11.39-.01-17.09,0-2.08,3.59-4.16,7.17-6.2,10.78-8.42-.03-16.84.01-25.26-.02,4.02-6.89,7.98-13.82,12.03-20.69Z"/><path d="M410.43,11.95c22.52,0,45.04-.01,67.57,0-4.03,7.01-8.06,14.01-12.12,21-14.39,0-28.79.03-43.18-.02-2.9,4.99-5.78,9.99-8.73,14.95,10.01,0,20.02-.01,30.04,0,3.95.22,7.29,3.84,7.31,7.79.18,2.01-.73,3.85-1.73,5.52-4.85,8.35-9.65,16.74-14.49,25.09-1.84,3.04-3.31,6.38-5.86,8.92-3.89,4.15-9.53,6.6-15.22,6.6-18.46-.01-36.93,0-55.39,0,4.03-7,8.05-14.01,12.1-21,14.39,0,28.79,0,43.18,0,2.29-3.98,4.59-7.94,6.87-11.93-9.92.03-19.85.03-29.78,0-4.15-.17-7.61-4.05-7.43-8.17-.13-1.95.82-3.71,1.82-5.31,8.33-14.49,16.75-28.94,25.05-43.44Z"/><path class="cls-1" d="M56.53,6.48C29.07,6.48,6.81,28.74,6.81,56.2s22.26,49.72,49.72,49.72,49.72-22.26,49.72-49.72S84,6.48,56.53,6.48h0Z"/><path d="M64.92,67.1h-3.36v4.33h3.36c.29.01.58-.11.77-.34.2-.25.31-.56.3-.87v-1.88c.01-.33-.09-.65-.3-.91-.19-.23-.48-.35-.77-.34h0Z"/><path d="M51.7,67.1h-2.58c-.31-.02-.6.1-.81.34-.21.26-.31.58-.3.91v7.78c0,.32.1.63.3.87.19.25.49.38.81.37h2.58c.3,0,.59-.13.77-.37.21-.24.31-.55.3-.87v-7.68c.02-.33-.09-.65-.3-.91-.17-.27-.46-.43-.77-.44Z"/><path d="M38.82,67.1h-3.66v4.7h3.66c.29.01.58-.11.77-.34.21-.25.32-.58.3-.91v-2.21c.02-.33-.09-.65-.3-.91-.19-.22-.48-.35-.77-.34h0Z"/><path d="M56.2,0C25.16,0,0,25.16,0,56.2s25.16,56.2,56.2,56.2,56.2-25.16,56.2-56.2h0C112.4,25.16,87.24,0,56.2,0ZM35.2,26h28.89l-4.43,7.01h-28.89l4.43-7.01ZM29.32,76.7c0,1.85-1.5,3.36-3.36,3.36h-3.82c-.85.03-1.68-.3-2.28-.91-.61-.6-.94-1.43-.91-2.28v-1.51h2.35l.34,1.41c.12.56.64.94,1.21.87h2.58c.3,0,.59-.13.77-.37.2-.25.3-.56.3-.87v-1.64c0-.81-.37-1.24-1.07-1.24h-3.36c-1.85,0-3.36-1.5-3.36-3.36v-2.18c0-.85.33-1.66.94-2.25.6-.61,1.42-.95,2.28-.94h3.76c.84,0,1.65.32,2.25.91.6.59.93,1.41.91,2.25v1.38h-2.01l-.34-1.24c-.13-.54-.62-.9-1.17-.87h-2.55c-.3,0-.59.13-.77.37-.21.25-.32.58-.3.91v1.27c0,.81.37,1.21,1.07,1.21h3.36c.85,0,1.67.35,2.25.97.61.6.95,1.42.94,2.28v2.58-.1ZM42.58,71.13c.02.86-.32,1.68-.94,2.28-.61.59-1.43.93-2.28.94h-4.19v5.57h-2.68v-15.17h6.71c.86,0,1.68.33,2.28.94.61.59.95,1.4.94,2.25l.17,3.19ZM55.43,76.67c.03.87-.31,1.71-.94,2.32-.6.62-1.42.96-2.28.94h-3.62c-1.85,0-3.36-1.5-3.36-3.36v-8.72c0-.85.33-1.66.94-2.25.6-.61,1.42-.95,2.28-.94h3.62c.86-.01,1.68.33,2.28.94.62.58.96,1.4.94,2.25l.13,8.82ZM56.1,61.13H19.53l8.89-14.06h-6.54l4.43-7.05h27.38l-4.46,7.05h-12.31l-4.5,7.05h19.63l17.95-28.35,22.35,35.36h-8.46l-4.43-7.01h-13.22l4.43-7.05h4.33l-5.03-7.99-13.89,22.04h.03ZM66.4,79.92l-2.48-5.94h-2.55v5.94h-2.68v-15.17h6.71c1.85,0,3.36,1.5,3.36,3.36v2.35c0,.67-.2,1.32-.57,1.88-.37.53-.88.95-1.48,1.21l2.65,6.27h-2.85l-.1.1ZM80.76,67.2h-3.89v12.72h-2.68v-12.82h-3.72v-2.45h10.43l-.13,2.55ZM92.94,76.7c0,1.85-1.5,3.36-3.36,3.36h-3.79c-.85.02-1.68-.3-2.28-.91-.61-.6-.94-1.43-.91-2.28v-1.51h2.35l.34,1.41c.12.56.64.94,1.21.87h2.58c.31.01.61-.12.81-.37.2-.25.3-.56.3-.87v-1.64c0-.81-.37-1.24-1.07-1.24h-3.36c-.86.02-1.68-.32-2.28-.94-.61-.6-.95-1.42-.94-2.28v-2.18c0-1.85,1.5-3.36,3.36-3.36h3.76c.84-.01,1.65.31,2.25.91.6.59.93,1.41.91,2.25v1.38h-2.21l-.34-1.24c-.13-.54-.62-.9-1.17-.87h-2.55c-.3,0-.59.13-.77.37-.21.26-.31.58-.3.91v1.27c0,.81.37,1.21,1.07,1.21h3.36c.85,0,1.67.35,2.25.97.63.59.99,1.42.97,2.28v2.58l-.17-.07ZM94.58,65.49h-.64v1.21h-.3v-1.21h-.57v-.23h1.44l.07.23ZM96.29,66.7v-.91h0l-.47.7h0l-.47-.74h0v.91h-.23v-1.48h.23l.57.87.57-.87h.23v1.48h-.27l-.17.03Z"/></svg>